<svg xmlns="http://www.w3.org/2000/svg" width="960" height="520" viewBox="0 0 960 520">
<rect width="100%" height="100%" fill="#ffffff"/>
<g stroke="#d0d7de" stroke-width="1">
<line x1="72.00" y1="28" x2="72.00" y2="464"/>
<line x1="180.00" y1="28" x2="180.00" y2="464"/>
<line x1="288.00" y1="28" x2="288.00" y2="464"/>
<line x1="396.00" y1="28" x2="396.00" y2="464"/>
<line x1="504.00" y1="28" x2="504.00" y2="464"/>
<line x1="612.00" y1="28" x2="612.00" y2="464"/>
<line x1="720.00" y1="28" x2="720.00" y2="464"/>
<line x1="828.00" y1="28" x2="828.00" y2="464"/>
<line x1="936.00" y1="28" x2="936.00" y2="464"/>
<line x1="72" y1="464.00" x2="936" y2="464.00"/>
<line x1="72" y1="355.00" x2="936" y2="355.00"/>
<line x1="72" y1="246.00" x2="936" y2="246.00"/>
<line x1="72" y1="137.00" x2="936" y2="137.00"/>
<line x1="72" y1="28.00" x2="936" y2="28.00"/>
</g>
<g fill="#24292f" font-family="sans-serif" font-size="14">
<text x="480.0" y="506" text-anchor="middle">Time (s)</text>
<text x="18" y="260.0" text-anchor="middle" transform="rotate(-90 18 260.0)">Normalized image error</text>
<text x="72.00" y="488" text-anchor="middle">0</text>
<text x="180.00" y="488" text-anchor="middle">1</text>
<text x="288.00" y="488" text-anchor="middle">2</text>
<text x="396.00" y="488" text-anchor="middle">3</text>
<text x="504.00" y="488" text-anchor="middle">4</text>
<text x="612.00" y="488" text-anchor="middle">5</text>
<text x="720.00" y="488" text-anchor="middle">6</text>
<text x="828.00" y="488" text-anchor="middle">7</text>
<text x="936.00" y="488" text-anchor="middle">8</text>
<text x="62" y="469.00" text-anchor="end">-0.65</text>
<text x="62" y="360.00" text-anchor="end">-0.32</text>
<text x="62" y="251.00" text-anchor="end">0.00</text>
<text x="62" y="142.00" text-anchor="end">0.32</text>
<text x="62" y="33.00" text-anchor="end">0.65</text>
</g>
<polyline points="72.00,44.15 77.40,44.52 82.80,45.54 88.20,47.40 93.60,50.23 99.00,54.15 104.40,59.22 109.80,65.22 115.20,71.89 120.60,79.04 126.00,86.54 131.40,94.30 136.80,102.23 142.20,110.30 147.60,118.47 153.00,126.70 158.40,134.86 163.80,142.79 169.20,150.41 174.60,157.64 180.00,164.47 185.40,170.87 190.80,176.85 196.20,182.40 201.60,187.56 207.00,192.32 212.40,196.73 217.80,200.79 223.20,204.52 228.60,207.96 234.00,211.13 239.40,214.03 244.80,216.70 250.20,219.15 255.60,221.39 261.00,223.45 266.40,225.34 271.80,227.07 277.20,228.66 282.60,230.11 288.00,231.45 293.40,232.67 298.80,233.79 304.20,234.81 309.60,235.75 315.00,236.61 320.40,237.40 325.80,238.12 331.20,238.79 336.60,239.39 342.00,239.95 347.40,240.46 352.80,240.92 358.20,241.35 363.60,241.74 369.00,242.10 374.40,242.42 379.80,242.73 385.20,243.00 390.60,243.25 396.00,243.48 401.40,243.69 406.80,243.89 412.20,244.07 417.60,244.23 423.00,244.38 428.40,244.51 433.80,244.64 439.20,244.75 444.60,244.86 450.00,244.95 455.40,245.04 460.80,245.11 466.20,245.15 471.60,245.18 477.00,245.21 482.40,245.23 487.80,245.24 493.20,245.25 498.60,245.25 504.00,245.26 509.40,245.26 514.80,245.26 520.20,245.27 525.60,245.27 531.00,245.27 536.40,245.27 541.80,245.27 547.20,245.27 552.60,245.27 558.00,245.27 563.40,245.27 568.80,245.27 574.20,245.27 579.60,245.27 585.00,245.27 590.40,245.27 595.80,245.27 601.20,245.27 606.60,245.27 612.00,245.27 617.40,245.27 622.80,245.27 628.20,245.27 633.60,245.27 639.00,245.27 644.40,245.27 649.80,245.27 655.20,245.27 660.60,245.27 666.00,245.27 671.40,245.27 676.80,245.27 682.20,245.27 687.60,245.27 693.00,245.27 698.40,245.27 703.80,245.27 709.20,245.27 714.60,245.27 720.00,245.27 725.40,245.27 730.80,245.27 736.20,245.27 741.60,245.27 747.00,245.27 752.40,245.27 757.80,245.27 763.20,245.27 768.60,245.27 774.00,245.27 779.40,245.27 784.80,245.27 790.20,245.27 795.60,245.27 801.00,245.27 806.40,245.27 811.80,245.27 817.20,245.27 822.60,245.27 828.00,245.27 833.40,245.27 838.80,245.27 844.20,245.27 849.60,245.27 855.00,245.27 860.40,245.27 865.80,245.27 871.20,245.27 876.60,245.27 882.00,245.27 887.40,245.27 892.80,245.27 898.20,245.27 903.60,245.27 909.00,245.27 914.40,245.27 919.80,245.27 925.20,245.27 930.60,245.27 936.00,245.27" fill="none" stroke="#0969da" stroke-width="3"/>
<polyline points="72.00,447.85 77.40,447.48 82.80,446.46 88.20,444.60 93.60,441.77 99.00,437.85 104.40,432.78 109.80,426.78 115.20,420.11 120.60,412.96 126.00,405.46 131.40,397.70 136.80,389.77 142.20,381.70 147.60,373.53 153.00,365.30 158.40,357.14 163.80,349.21 169.20,341.59 174.60,334.36 180.00,327.53 185.40,321.13 190.80,315.15 196.20,309.60 201.60,304.44 207.00,299.68 212.40,295.27 217.80,291.21 223.20,287.48 228.60,284.04 234.00,280.87 239.40,277.97 244.80,275.30 250.20,272.85 255.60,270.61 261.00,268.55 266.40,266.66 271.80,264.93 277.20,263.34 282.60,261.89 288.00,260.55 293.40,259.33 298.80,258.21 304.20,257.19 309.60,256.25 315.00,255.39 320.40,254.60 325.80,253.88 331.20,253.21 336.60,252.61 342.00,252.05 347.40,251.54 352.80,251.08 358.20,250.65 363.60,250.26 369.00,249.90 374.40,249.58 379.80,249.27 385.20,249.00 390.60,248.75 396.00,248.52 401.40,248.31 406.80,248.11 412.20,247.93 417.60,247.77 423.00,247.62 428.40,247.49 433.80,247.36 439.20,247.25 444.60,247.14 450.00,247.05 455.40,246.96 460.80,246.89 466.20,246.85 471.60,246.82 477.00,246.79 482.40,246.77 487.80,246.76 493.20,246.75 498.60,246.75 504.00,246.74 509.40,246.74 514.80,246.74 520.20,246.73 525.60,246.73 531.00,246.73 536.40,246.73 541.80,246.73 547.20,246.73 552.60,246.73 558.00,246.73 563.40,246.73 568.80,246.73 574.20,246.73 579.60,246.73 585.00,246.73 590.40,246.73 595.80,246.73 601.20,246.73 606.60,246.73 612.00,246.73 617.40,246.73 622.80,246.73 628.20,246.73 633.60,246.73 639.00,246.73 644.40,246.73 649.80,246.73 655.20,246.73 660.60,246.73 666.00,246.73 671.40,246.73 676.80,246.73 682.20,246.73 687.60,246.73 693.00,246.73 698.40,246.73 703.80,246.73 709.20,246.73 714.60,246.73 720.00,246.73 725.40,246.73 730.80,246.73 736.20,246.73 741.60,246.73 747.00,246.73 752.40,246.73 757.80,246.73 763.20,246.73 768.60,246.73 774.00,246.73 779.40,246.73 784.80,246.73 790.20,246.73 795.60,246.73 801.00,246.73 806.40,246.73 811.80,246.73 817.20,246.73 822.60,246.73 828.00,246.73 833.40,246.73 838.80,246.73 844.20,246.73 849.60,246.73 855.00,246.73 860.40,246.73 865.80,246.73 871.20,246.73 876.60,246.73 882.00,246.73 887.40,246.73 892.80,246.73 898.20,246.73 903.60,246.73 909.00,246.73 914.40,246.73 919.80,246.73 925.20,246.73 930.60,246.73 936.00,246.73" fill="none" stroke="#cf222e" stroke-width="3"/>
<g font-family="sans-serif" font-size="14" fill="#24292f">
<line x1="90" y1="44" x2="126" y2="44" stroke="#0969da" stroke-width="3"/>
<text x="134" y="49">+0.6 step</text>
<line x1="222" y1="44" x2="258" y2="44" stroke="#cf222e" stroke-width="3"/>
<text x="266" y="49">-0.6 step</text>
</g>
</svg>
